<svg xmlns="http://www.w3.org/2000/svg" xmlns:xlink="http://www.w3.org/1999/xlink" width="390" height="336" version="1.1" viewBox="0 0 390 336"><title>confetti</title><desc>Created with Sketch.</desc><g id="Article" fill="none" fill-rule="evenodd" stroke="none" stroke-width="1"><g id="Article---All-sections---Grain" transform="translate(-438.000000, -4097.000000)"><g id="2.-Education" transform="translate(-123.000000, 4074.000000)"><g id="confetti" transform="translate(559.000000, 21.000000)"><path id="Stroke-3" stroke="#FF005B" d="M363.137094,229.570675 C363.137094,235.774675 358.107094,240.804675 351.903094,240.804675 C345.698094,240.804675 340.668094,235.774675 340.668094,229.570675 C340.668094,223.365675 345.698094,218.336675 351.903094,218.336675 C358.107094,218.336675 363.137094,223.365675 363.137094,229.570675 Z" transform="translate(351.902594, 229.570675) rotate(-108.000000) translate(-351.902594, -229.570675)"/><path id="Fill-5" fill="#5517D0" d="M20.7445602,83.5657392 C20.7445602,88.6347392 16.6355602,92.7447392 11.5655602,92.7447392 C6.49656025,92.7447392 2.38756025,88.6347392 2.38756025,83.5657392 C2.38756025,78.4967392 6.49656025,74.3867392 11.5655602,74.3867392 C16.6355602,74.3867392 20.7445602,78.4967392 20.7445602,83.5657392" transform="translate(11.566060, 83.565739) rotate(-108.000000) translate(-11.566060, -83.565739)"/><path id="Fill-5" fill="#5517D0" d="M278.74456,11.5657392 C278.74456,16.6347392 274.63556,20.7447392 269.56556,20.7447392 C264.49656,20.7447392 260.38756,16.6347392 260.38756,11.5657392 C260.38756,6.49673923 264.49656,2.38673923 269.56556,2.38673923 C274.63556,2.38673923 278.74456,6.49673923 278.74456,11.5657392" transform="translate(269.566060, 11.565739) rotate(-108.000000) translate(-269.566060, -11.565739)"/><path id="Fill-51" fill="#FF005B" d="M385.155068,119.219247 C385.155068,121.945247 382.945068,124.155247 380.219068,124.155247 C377.493068,124.155247 375.284068,121.945247 375.284068,119.219247 C375.284068,116.493247 377.493068,114.283247 380.219068,114.283247 C382.945068,114.283247 385.155068,116.493247 385.155068,119.219247" transform="translate(380.219568, 119.219247) rotate(-108.000000) translate(-380.219568, -119.219247)"/><path id="Fill-51-Copy-3" fill="#FF005B" d="M217.784068,103.533577 C217.784068,105.328633 216.328795,106.783906 214.533739,106.783906 C212.738683,106.783906 211.284068,105.328633 211.284068,103.533577 C211.284068,101.73852 212.738683,100.283247 214.533739,100.283247 C216.328795,100.283247 217.784068,101.73852 217.784068,103.533577" transform="translate(214.534068, 103.533577) rotate(-108.000000) translate(-214.534068, -103.533577)"/><polygon id="Stroke-53" fill="#FF005B" points="70.427 324.964 56.964 338.427 43.501 324.964 56.964 311.501" transform="translate(56.964370, 324.964370) rotate(-108.000000) translate(-56.964370, -324.964370)"/><polygon id="Stroke-53-Copy" fill="#FF005B" points="147.612 143.149 134.149 156.612 120.686 143.149 134.149 129.686" transform="translate(134.149148, 143.149148) rotate(-3.000000) translate(-134.149148, -143.149148)"/><polygon id="Stroke-9" stroke="#027AF5" points="391.569 37.256 380.256 48.569 368.942 37.256 380.256 25.942" transform="translate(380.255842, 37.255842) rotate(-108.000000) translate(-380.255842, -37.255842)"/><path id="Stroke-3" stroke="#FF005B" d="M69.4717617,141.788678 C69.4717617,147.992678 64.4417617,153.022678 58.2377617,153.022678 C52.0327617,153.022678 47.0027617,147.992678 47.0027617,141.788678 C47.0027617,135.583678 52.0327617,130.554678 58.2377617,130.554678 C64.4417617,130.554678 69.4717617,135.583678 69.4717617,141.788678 Z" transform="translate(58.237262, 141.788678) rotate(-408.000000) translate(-58.237262, -141.788678)"/><path id="Fill-51" fill="#FF005B" d="M233.906157,212.97062 C233.906157,215.69662 231.696157,217.90662 228.970157,217.90662 C226.244157,217.90662 224.035157,215.69662 224.035157,212.97062 C224.035157,210.24462 226.244157,208.03462 228.970157,208.03462 C231.696157,208.03462 233.906157,210.24462 233.906157,212.97062" transform="translate(228.970657, 212.970620) rotate(-408.000000) translate(-228.970657, -212.970620)"/><path id="Fill-51-Copy-2" fill="#FF005B" d="M85.906157,22.97062 C85.906157,25.69662 83.696157,27.90662 80.970157,27.90662 C78.244157,27.90662 76.035157,25.69662 76.035157,22.97062 C76.035157,20.24462 78.244157,18.03462 80.970157,18.03462 C83.696157,18.03462 85.906157,20.24462 85.906157,22.97062" transform="translate(80.970657, 22.970620) rotate(-408.000000) translate(-80.970657, -22.970620)"/><polygon id="Stroke-53" fill="#FF005B" points="177.859 289.278 164.396 302.741 150.933 289.278 164.396 275.815" transform="translate(164.396073, 289.277589) rotate(-408.000000) translate(-164.396073, -289.277589)"/><polygon id="Stroke-9" stroke="#027AF5" points="297.291 152.447 285.978 163.76 274.664 152.447 285.978 141.133" transform="translate(285.977807, 152.446274) rotate(-408.000000) translate(-285.977807, -152.446274)"/><polygon id="Stroke-9" fill="#027AF5" stroke="#027AF5" points="297.291 152.447 285.978 163.76 274.664 152.447 285.978 141.133" transform="translate(285.977807, 152.446274) rotate(-408.000000) translate(-285.977807, -152.446274)"/></g></g></g></g></svg>