<svg xmlns="http://www.w3.org/2000/svg" xmlns:xlink="http://www.w3.org/1999/xlink" width="177" height="298" version="1.1" viewBox="0 0 177 298"><title>Confetti</title><desc>Created with Sketch.</desc><g id="Article" fill="none" fill-rule="evenodd" stroke="none" stroke-width="1"><g id="Article---All-sections---Grain" transform="translate(-843.000000, -5810.000000)"><g id="2.-Education" transform="translate(-123.000000, 4074.000000)"><g id="Confetti" transform="translate(1050.000000, 1889.500000) rotate(17.000000) translate(-1050.000000, -1889.500000) translate(953.000000, 1745.000000)"><path id="Stroke-3" stroke="#FF005B" d="M95.3903203,214.156319 C95.3903203,218.151409 92.1512323,221.390497 88.1561423,221.390497 C84.1604084,221.390497 80.9213203,218.151409 80.9213203,214.156319 C80.9213203,210.160585 84.1604084,206.922141 88.1561423,206.922141 C92.1512323,206.922141 95.3903203,210.160585 95.3903203,214.156319 Z" transform="translate(88.155820, 214.156319) rotate(-108.000000) translate(-88.155820, -214.156319)"/><path id="Fill-51-Copy-3" fill="#FF005B" d="M175.784068,87.5335766 C175.784068,89.3286328 174.328795,90.7839058 172.533739,90.7839058 C170.738683,90.7839058 169.284068,89.3286328 169.284068,87.5335766 C169.284068,85.7385203 170.738683,84.2832473 172.533739,84.2832473 C174.328795,84.2832473 175.784068,85.7385203 175.784068,87.5335766" transform="translate(172.534068, 87.533577) rotate(-108.000000) translate(-172.534068, -87.533577)"/><polygon id="Stroke-53-Copy" fill="#FF005B" points="105.612 127.149 92.149 140.612 78.686 127.149 92.149 113.686" transform="translate(92.149148, 127.149148) rotate(-3.000000) translate(-92.149148, -127.149148)"/><path id="Stroke-3" stroke="#FF005B" d="M27.4717617,125.788678 C27.4717617,131.992678 22.4417617,137.022678 16.2377617,137.022678 C10.0327617,137.022678 5.00276173,131.992678 5.00276173,125.788678 C5.00276173,119.583678 10.0327617,114.554678 16.2377617,114.554678 C22.4417617,114.554678 27.4717617,119.583678 27.4717617,125.788678 Z" transform="translate(16.237262, 125.788678) rotate(-408.000000) translate(-16.237262, -125.788678)"/><path id="Fill-51" fill="#FF005B" d="M191.906157,196.97062 C191.906157,199.69662 189.696157,201.90662 186.970157,201.90662 C184.244157,201.90662 182.035157,199.69662 182.035157,196.97062 C182.035157,194.24462 184.244157,192.03462 186.970157,192.03462 C189.696157,192.03462 191.906157,194.24462 191.906157,196.97062" transform="translate(186.970657, 196.970620) rotate(-408.000000) translate(-186.970657, -196.970620)"/><path id="Fill-51-Copy-2" fill="#FF005B" d="M43.906157,6.97061996 C43.906157,9.69661996 41.696157,11.90662 38.970157,11.90662 C36.244157,11.90662 34.035157,9.69661996 34.035157,6.97061996 C34.035157,4.24461996 36.244157,2.03461996 38.970157,2.03461996 C41.696157,2.03461996 43.906157,4.24461996 43.906157,6.97061996" transform="translate(38.970657, 6.970620) rotate(-408.000000) translate(-38.970657, -6.970620)"/><polygon id="Stroke-53" fill="#FF005B" points="135.859 273.278 122.396 286.741 108.933 273.278 122.396 259.815" transform="translate(122.396073, 273.277589) rotate(-8.000000) translate(-122.396073, -273.277589)"/></g></g></g></g></svg>