<svg xmlns="http://www.w3.org/2000/svg" xmlns:xlink="http://www.w3.org/1999/xlink" width="494" height="316" version="1.1" viewBox="0 0 494 316"><title>Group 7</title><desc>Created with Sketch.</desc><g id="Article" fill="none" fill-rule="evenodd" stroke="none" stroke-width="1"><g id="Article---All-sections---Grain" fill="#FF005B" fill-rule="nonzero" transform="translate(-409.000000, -7717.000000)"><g id="2.-Education" transform="translate(-123.000000, 4074.000000)"><g id="Web-pages" transform="translate(132.000000, 3544.000000)"><g id="Group-Copy-3" transform="translate(339.000000, 0.000000)"><g id="Group-7" transform="translate(61.000000, 99.000000)"><polygon id="Rectangle" points="440 40 484 40 484 46 440 46"/><rect id="Rectangle" width="304" height="6" x="0" y="0"/><polygon id="Rectangle" points="440 0 474 0 474 6 440 6"/><polygon id="Rectangle" points="440 20 494 20 494 26 440 26"/><polygon id="Rectangle" points="440 60 474 60 474 66 440 66"/><polygon id="Rectangle" points="440 80 494 80 494 86 440 86"/><circle id="Oval" cx="399" cy="228" r="88" opacity=".376"/><path id="Path" d="M399,316 C447.601058,316 487,276.601058 487,228 C487,179.398942 447.601058,140 399,140"/><polygon id="Rectangle" points="0 20 284 20 284 26 0 26"/></g></g></g></g></g></g></svg>