<svg xmlns="http://www.w3.org/2000/svg" xmlns:xlink="http://www.w3.org/1999/xlink" width="1440" height="1715" version="1.1" viewBox="0 0 1440 1715"><title>Grid</title><desc>Created with Sketch.</desc><g id="Article" fill="none" fill-rule="evenodd" stroke="none" stroke-width="1" opacity=".07"><g id="Article---All-sections---Grain" fill="#5517D0" fill-rule="nonzero" transform="translate(0.000000, -7689.000000)"><g id="2.-Education" transform="translate(-123.000000, 4074.000000)"><g id="Grid" transform="translate(0.000000, 3615.000000)"><g id="Group-15" transform="translate(258.000000, 0.000000)"><rect id="Rectangle" width="1" height="1715" x="100" y="0"/><rect id="Rectangle" width="1" height="1715" x="0" y="0"/><rect id="Rectangle" width="1" height="1715" x="201" y="0"/><rect id="Rectangle" width="1" height="1715" x="301" y="0"/><rect id="Rectangle" width="1" height="1715" x="402" y="0"/><rect id="Rectangle" width="1" height="1715" x="501" y="0"/><rect id="Rectangle" width="1" height="1715" x="600" y="0"/><rect id="Rectangle" width="1" height="1715" x="699" y="0"/><rect id="Rectangle" width="1" height="1715" x="799" y="0"/><rect id="Rectangle" width="1" height="1715" x="899" y="0"/><rect id="Rectangle" width="1" height="1715" x="999" y="0"/><rect id="Rectangle" width="1" height="1715" x="1099" y="0"/><rect id="Rectangle" width="1" height="1715" x="1199" y="0"/></g><g id="Group-15" transform="translate(858.000000, 1297.500000) rotate(-270.000000) translate(-858.000000, -1297.500000) translate(508.000000, 440.000000)"><rect id="Rectangle" width="1" height="1715" x="0" y="0"/><rect id="Rectangle" width="1" height="1715" x="101" y="0"/><rect id="Rectangle" width="1" height="1715" x="201" y="0"/><rect id="Rectangle" width="1" height="1715" x="302" y="0"/><rect id="Rectangle" width="1" height="1715" x="401" y="0"/><rect id="Rectangle" width="1" height="1715" x="500" y="0"/><rect id="Rectangle" width="1" height="1715" x="599" y="0"/><rect id="Rectangle" width="1" height="1715" x="699" y="0"/></g><g id="Group-15" transform="translate(980.500000, 458.500000) rotate(-270.000000) translate(-980.500000, -458.500000) translate(581.000000, -399.000000)"><rect id="Rectangle" width="1" height="1715" x="0" y="0"/><rect id="Rectangle" width="1" height="1715" x="101" y="0"/><rect id="Rectangle" width="1" height="1715" x="200" y="0"/><rect id="Rectangle" width="1" height="1715" x="299" y="0"/><rect id="Rectangle" width="1" height="1715" x="398" y="0"/><rect id="Rectangle" width="1" height="1715" x="498" y="0"/><rect id="Rectangle" width="1" height="1715" x="598" y="0"/><rect id="Rectangle" width="1" height="1715" x="698" y="0"/><rect id="Rectangle" width="1" height="1715" x="798" y="0"/></g></g></g></g></g></svg>