<svg xmlns="http://www.w3.org/2000/svg" xmlns:xlink="http://www.w3.org/1999/xlink" width="538" height="204" version="1.1" viewBox="0 0 538 204"><title>Group 20</title><desc>Created with Sketch.</desc><g id="Article" fill="none" fill-rule="evenodd" stroke="none" stroke-width="1"><g id="Article---All-sections---Grain" stroke="#5517D0" transform="translate(-594.000000, -7900.000000)"><g id="2.-Education" transform="translate(-123.000000, 4074.000000)"><g id="Web-pages" transform="translate(132.000000, 3544.000000)"><g id="Group-26" transform="translate(559.000000, 90.000000)"><g id="Group-Copy-3" transform="translate(18.000000, 26.000000)"><g id="Group-20" transform="translate(15.000000, 168.000000)"><g id="MeetYourChart-JillPatterson" stroke-width="16" opacity=".31" transform="translate(0.000000, 66.000000)"><path id="Path" d="M1,3 L1,134"/><path id="Path" d="M19,7 L19,134"/><path id="Path" d="M37,0 L37,134"/><path id="Path" d="M55,9 L55,134"/><path id="Path" d="M73,17 L73,134"/><path id="Path" d="M91,26 L91,134"/><path id="Path" d="M109,24 L109,134"/><path id="Path" d="M127,16 L127,134"/><path id="Path" d="M145,45 L145,134"/><path id="Path" d="M163,61 L163,134"/><path id="Path" d="M181,73 L181,134"/><path id="Path" d="M199,84 L199,134"/><path id="Path" d="M217,63 L217,134"/><path id="Path" d="M235,77 L235,134"/><path id="Path" d="M253,104 L253,134"/><path id="Path" d="M271,103 L271,134"/><path id="Path" d="M289,101 L289,134"/><path id="Path" d="M307,115 L307,134"/><path id="Path" d="M325,65 L325,134"/><path id="Path" d="M343,33 L343,134"/><path id="Path" d="M361,28 L361,134"/><path id="Path" d="M379,34 L379,134"/><path id="Path" d="M397,15 L397,134"/><path id="Path" d="M415,21 L415,134"/><path id="Path" d="M433,45 L433,134"/><path id="Path" d="M451,52 L451,134"/><path id="Path" d="M469,47 L469,134"/><path id="Path" d="M487,15 L487,134"/><path id="Path" d="M505,22 L505,134"/><path id="Path" d="M523,42 L523,134"/></g><g id="MeetYourChart-HeidiRobinson" stroke-linecap="round" stroke-linejoin="round" stroke-width="3.5"><polyline id="chart" points=".593 98.851 4.955 113.797 9.317 125.84 13.678 124.877 18.04 140.786 22.402 152.576 26.763 156.008 31.125 144.295 35.487 161.457 39.849 166.746 44.21 151.504 48.572 146.565 52.934 149.627 57.295 146.014 61.658 147.459 66.019 147.172 70.38 148.072 74.743 138.446 79.104 150.16 83.466 145.881 87.828 151.689 92.189 158.289 96.551 148.123 100.913 146.132 105.274 148.171 109.636 150.04 113.998 143.428 118.36 133.51 122.721 129.173 127.083 138.961 131.445 145.339 135.806 150.403 140.169 154.287 144.53 169.003 148.891 175.311 153.254 177.375 157.615 177.365 161.977 187.361 166.339 179.802 170.7 186.206 175.062 182.387 179.424 169.399 183.786 170.261 188.147 161.168 192.509 152.541 196.871 153.921 201.232 161.087 205.594 172.593 209.956 178.323 214.317 200 218.68 196.542 223.041 195.631 227.402 189.75 231.765 175.851 236.126 175.279 240.488 168.701 244.85 170.556 249.211 172.408 253.573 150.627 257.935 132.013 262.297 127.232 266.658 118.262 271.02 114.669 275.382 96.459 279.743 96.469 284.105 87.375 288.467 88.738 292.828 81.445 297.191 76.367 301.552 82.072 305.913 72.398 310.276 65.078 314.637 59.761 318.999 65.641 323.361 65.003 327.722 53.903 332.084 41.7 336.446 48.122 340.808 35.445 345.169 30.888 349.531 13.558 353.893 23.526 358.254 33.325 362.617 22.515 366.978 15.164 371.339 8.564 375.702 4.909 380.063 4.149 384.425 7.416 388.787 0 393.148 2.353 397.51 9.714 401.872 14.5 406.233 23.93 410.595 21.028 414.957 16.964 419.319 22.083 423.68 18.913 428.042 6.751 432.404 5.637 436.765 19.141 441.128 17.134 445.489 12.643 449.85 10.201 454.213 15.377 458.574 8.197 462.936 23.753 467.298 33.262 471.659 32.957 476.021 12.933 480.383 19 484.744 30.772 489.106 31.699 493.468 12.796 497.83 18.096 502.191 25.291 506.553 12.035 510.915 21.564 515.276 30.814 519.639 19.996 524 30.524"/></g></g></g></g></g></g></g></g></svg>